<svg width="231" height="277" viewBox="0 0 231 277" fill="none" xmlns="http://www.w3.org/2000/svg">
<path d="M166.124 96.8174C176.887 110.018 182.167 125.485 182.886 140.593C183.885 121.945 178.365 101.987 163.725 85.9218C165.408 89.6611 165.888 93.2786 166.124 96.8174Z" fill="url(#paint0_radial_37_6392)"/>
<path d="M111.163 161.745C106.563 167.549 105.12 173.234 106.201 179.08C108.162 171.008 113.363 166.633 118.966 162.541C135.606 150.412 169.29 129.062 165.929 102.585C162.047 131.052 118.48 152.442 111.163 161.745Z" fill="url(#paint1_radial_37_6392)"/>
<path d="M49.3206 136.141C52.119 81.0709 114.122 61.3904 116.761 7.79539C124.523 21.8698 128.004 34.8702 128.602 47.1153C129.282 32.6435 126.482 17.0978 117.08 0C114.323 56.0241 46.3179 75.0693 49.3206 136.141Z" fill="url(#paint2_radial_37_6392)"/>
<path d="M165.927 102.585C170.045 134.87 118.844 159.323 110.882 169.459C108.404 172.561 106.96 175.819 106.201 179.082C106.481 178.961 106.722 178.801 107.005 178.724C114.643 175.622 143.887 177.69 158.329 158.926C159.328 157.968 160.287 156.935 161.206 155.824C158.364 166.237 152.567 176.218 145.405 184.647C139.844 190.413 133.685 195.224 127.644 198.604C128.885 198.763 130.124 198.84 131.443 198.802C161.243 198.167 181.246 171.13 182.886 140.595C182.165 125.485 176.887 110.018 166.124 96.8192C166.246 98.7648 166.165 100.675 165.927 102.585Z" fill="url(#paint3_linear_37_6392)"/>
<path d="M88.8429 165.008C91.5588 128.745 130.884 93.7172 128.603 47.1172C126.442 93.1211 85.962 127.99 88.8429 165.008Z" fill="url(#paint4_radial_37_6392)"/>
<path d="M49 136.141C49.1612 139.359 49.5174 142.699 50.0797 146.161C50.6382 149.578 51.4404 152.841 52.4788 156.02C53.5997 148.109 57.6407 141.112 61.8805 133.875C65.841 127.073 69.8802 120.121 71.6009 112.247C72.8417 115.068 73.6776 117.971 74.12 120.951L74.1631 121.15L74.2025 121.311C76.9203 132.248 73.6795 143.022 70.5624 153.439C67.9627 162.226 65.4792 170.575 66.4426 178.764C66.482 179.2 66.5608 179.598 66.6414 179.995C75.1209 188.983 86.3219 195.781 99.5604 199.916C90.7604 187.91 88.0014 176.378 88.843 165.01C85.9621 127.991 126.442 93.123 128.603 47.1191C128.006 34.874 124.523 21.793 116.763 7.71851C114.122 61.3135 51.7984 81.0709 49 136.141Z" fill="url(#paint5_linear_37_6392)"/>
<path d="M18.432 265.624C16.096 265.624 13.92 265.168 11.904 264.256C9.904 263.344 8.152 262.088 6.648 260.488C5.16 258.872 4 257.008 3.168 254.896C2.336 252.784 1.92 250.536 1.92 248.152C1.92 245.592 2.376 243.256 3.288 241.144C4.2 239.032 5.44 237.208 7.008 235.672C8.576 234.12 10.352 232.928 12.336 232.096C14.336 231.248 16.416 230.824 18.576 230.824C20.944 230.824 23.264 231.376 25.536 232.48C27.808 233.584 29.84 235.336 31.632 237.736L25.728 240.904C24.704 239.72 23.56 238.84 22.296 238.264C21.048 237.688 19.776 237.4 18.48 237.4C17.184 237.4 15.936 237.664 14.736 238.192C13.552 238.72 12.496 239.472 11.568 240.448C10.64 241.424 9.904 242.576 9.36 243.904C8.816 245.232 8.544 246.696 8.544 248.296C8.544 249.784 8.8 251.176 9.312 252.472C9.84 253.768 10.56 254.904 11.472 255.88C12.384 256.856 13.44 257.624 14.64 258.184C15.856 258.728 17.152 259 18.528 259C19.376 259 20.208 258.88 21.024 258.64C21.856 258.384 22.648 258.016 23.4 257.536C24.152 257.056 24.84 256.456 25.464 255.736C26.104 255.016 26.664 254.184 27.144 253.24H21.936V247.48H34.944C35.04 249.96 34.68 252.296 33.864 254.488C33.048 256.68 31.88 258.616 30.36 260.296C28.84 261.96 27.064 263.264 25.032 264.208C23 265.152 20.8 265.624 18.432 265.624ZM56.496 241H63.12V265H56.472L56.16 262.504C55.536 263.432 54.736 264.184 53.76 264.76C52.784 265.336 51.64 265.624 50.328 265.624C48.536 265.624 46.864 265.288 45.312 264.616C43.76 263.944 42.392 263.016 41.208 261.832C40.024 260.648 39.096 259.28 38.424 257.728C37.768 256.16 37.44 254.48 37.44 252.688C37.44 250.976 37.752 249.376 38.376 247.888C39 246.4 39.88 245.088 41.016 243.952C42.152 242.816 43.456 241.928 44.928 241.288C46.416 240.648 48.016 240.328 49.728 240.328C51.2 240.328 52.52 240.64 53.688 241.264C54.872 241.888 55.904 242.68 56.784 243.64L56.496 241ZM50.16 259.264C51.248 259.264 52.232 258.984 53.112 258.424C53.992 257.864 54.688 257.112 55.2 256.168C55.712 255.208 55.968 254.152 55.968 253C55.968 251.832 55.712 250.776 55.2 249.832C54.688 248.888 53.992 248.136 53.112 247.576C52.232 247.016 51.248 246.736 50.16 246.736C49.056 246.736 48.056 247.016 47.16 247.576C46.264 248.136 45.552 248.896 45.024 249.856C44.496 250.8 44.232 251.848 44.232 253C44.232 254.152 44.496 255.208 45.024 256.168C45.568 257.112 46.288 257.864 47.184 258.424C48.08 258.984 49.072 259.264 50.16 259.264ZM74.9265 265.432C73.6945 265.336 72.5105 265.08 71.3745 264.664C70.2385 264.232 69.2225 263.656 68.3265 262.936C67.4465 262.2 66.7585 261.32 66.2625 260.296L71.8305 257.896C72.0065 258.152 72.2705 258.432 72.6225 258.736C72.9745 259.024 73.3985 259.28 73.8945 259.504C74.4065 259.728 74.9985 259.84 75.6705 259.84C76.1665 259.84 76.6465 259.784 77.1105 259.672C77.5745 259.544 77.9505 259.344 78.2385 259.072C78.5265 258.784 78.6705 258.408 78.6705 257.944C78.6705 257.432 78.4865 257.04 78.1185 256.768C77.7505 256.496 77.3025 256.296 76.7745 256.168C76.2625 256.024 75.7665 255.904 75.2865 255.808C73.8145 255.552 72.4225 255.096 71.1105 254.44C69.8145 253.768 68.7585 252.904 67.9425 251.848C67.1265 250.792 66.7185 249.528 66.7185 248.056C66.7185 246.44 67.1425 245.048 67.9905 243.88C68.8385 242.696 69.9425 241.784 71.3025 241.144C72.6625 240.504 74.1345 240.184 75.7185 240.184C77.5905 240.184 79.3265 240.576 80.9265 241.36C82.5265 242.144 83.8145 243.248 84.7905 244.672L79.5585 247.768C79.3505 247.464 79.0785 247.176 78.7425 246.904C78.4225 246.616 78.0465 246.376 77.6145 246.184C77.1985 245.976 76.7505 245.856 76.2705 245.824C75.6465 245.776 75.0785 245.816 74.5665 245.944C74.0545 246.056 73.6465 246.272 73.3425 246.592C73.0545 246.912 72.9105 247.344 72.9105 247.888C72.9105 248.416 73.1425 248.808 73.6065 249.064C74.0705 249.304 74.6065 249.488 75.2145 249.616C75.8225 249.728 76.3585 249.864 76.8225 250.024C78.2145 250.472 79.5185 251.048 80.7345 251.752C81.9665 252.44 82.9585 253.288 83.7105 254.296C84.4625 255.304 84.8145 256.488 84.7665 257.848C84.7665 259.432 84.2945 260.824 83.3505 262.024C82.4065 263.208 81.1825 264.112 79.6785 264.736C78.1905 265.344 76.6065 265.576 74.9265 265.432ZM101.065 265.624C99.1768 265.624 97.3688 265.328 95.6408 264.736C93.9288 264.144 92.4248 263.288 91.1288 262.168C89.8488 261.048 88.9288 259.72 88.3688 258.184L94.5848 255.88C94.7768 256.424 95.1768 256.936 95.7848 257.416C96.3928 257.88 97.1528 258.264 98.0648 258.568C98.9768 258.856 99.9768 259 101.065 259C102.105 259 103.081 258.848 103.993 258.544C104.921 258.224 105.665 257.784 106.225 257.224C106.801 256.664 107.089 256.008 107.089 255.256C107.089 254.504 106.793 253.88 106.201 253.384C105.609 252.888 104.849 252.496 103.921 252.208C102.993 251.904 102.041 251.672 101.065 251.512C98.6488 251.16 96.4808 250.592 94.5608 249.808C92.6568 249.008 91.1528 247.912 90.0488 246.52C88.9448 245.112 88.3928 243.328 88.3928 241.168C88.3928 239.088 88.9768 237.272 90.1448 235.72C91.3288 234.168 92.8808 232.96 94.8008 232.096C96.7368 231.232 98.8248 230.8 101.065 230.8C102.921 230.8 104.713 231.096 106.441 231.688C108.169 232.28 109.673 233.136 110.953 234.256C112.249 235.376 113.177 236.72 113.737 238.288L107.521 240.544C107.329 240 106.929 239.496 106.321 239.032C105.713 238.568 104.953 238.192 104.041 237.904C103.129 237.616 102.137 237.472 101.065 237.472C100.041 237.456 99.0648 237.608 98.1368 237.928C97.2248 238.248 96.4728 238.688 95.8808 239.248C95.3048 239.808 95.0168 240.448 95.0168 241.168C95.0168 242.112 95.2888 242.824 95.8328 243.304C96.3928 243.784 97.1288 244.128 98.0408 244.336C98.9528 244.544 99.9608 244.728 101.065 244.888C103.337 245.224 105.433 245.824 107.353 246.688C109.273 247.536 110.809 248.672 111.961 250.096C113.129 251.504 113.713 253.224 113.713 255.256C113.713 257.336 113.129 259.152 111.961 260.704C110.793 262.256 109.249 263.464 107.329 264.328C105.409 265.192 103.321 265.624 101.065 265.624ZM135.762 241H142.386V265H135.738L135.426 262.504C134.802 263.432 134.002 264.184 133.026 264.76C132.05 265.336 130.906 265.624 129.594 265.624C127.802 265.624 126.13 265.288 124.578 264.616C123.026 263.944 121.658 263.016 120.474 261.832C119.29 260.648 118.362 259.28 117.69 257.728C117.034 256.16 116.706 254.48 116.706 252.688C116.706 250.976 117.018 249.376 117.642 247.888C118.266 246.4 119.146 245.088 120.282 243.952C121.418 242.816 122.722 241.928 124.194 241.288C125.682 240.648 127.282 240.328 128.994 240.328C130.466 240.328 131.786 240.64 132.954 241.264C134.138 241.888 135.17 242.68 136.05 243.64L135.762 241ZM129.426 259.264C130.514 259.264 131.498 258.984 132.378 258.424C133.258 257.864 133.954 257.112 134.466 256.168C134.978 255.208 135.234 254.152 135.234 253C135.234 251.832 134.978 250.776 134.466 249.832C133.954 248.888 133.258 248.136 132.378 247.576C131.498 247.016 130.514 246.736 129.426 246.736C128.322 246.736 127.322 247.016 126.426 247.576C125.53 248.136 124.818 248.896 124.29 249.856C123.762 250.8 123.498 251.848 123.498 253C123.498 254.152 123.762 255.208 124.29 256.168C124.834 257.112 125.554 257.864 126.45 258.424C127.346 258.984 128.338 259.264 129.426 259.264ZM161.807 265H153.239L144.503 241H151.559L157.511 257.392L163.463 241H170.543L161.807 265ZM183.596 265.624C181.388 265.624 179.372 265.056 177.548 263.92C175.74 262.784 174.292 261.256 173.204 259.336C172.132 257.416 171.596 255.296 171.596 252.976C171.596 251.232 171.908 249.6 172.532 248.08C173.156 246.544 174.012 245.2 175.1 244.048C176.204 242.88 177.484 241.968 178.94 241.312C180.396 240.656 181.948 240.328 183.596 240.328C185.5 240.328 187.236 240.736 188.804 241.552C190.388 242.368 191.724 243.48 192.812 244.888C193.916 246.296 194.7 247.888 195.164 249.664C195.644 251.44 195.724 253.288 195.404 255.208H178.748C178.956 255.912 179.276 256.552 179.708 257.128C180.156 257.688 180.7 258.136 181.34 258.472C181.996 258.808 182.748 258.984 183.596 259C184.428 259.016 185.196 258.824 185.9 258.424C186.604 258.024 187.204 257.488 187.7 256.816L194.468 258.376C193.492 260.504 192.036 262.248 190.1 263.608C188.164 264.952 185.996 265.624 183.596 265.624ZM178.508 250.312H188.708C188.5 249.512 188.148 248.792 187.652 248.152C187.156 247.512 186.556 247.008 185.852 246.64C185.164 246.272 184.412 246.088 183.596 246.088C182.796 246.088 182.044 246.272 181.34 246.64C180.652 247.008 180.06 247.512 179.564 248.152C179.084 248.776 178.732 249.496 178.508 250.312ZM196.721 265L209.009 248.104L196.865 231.4H205.025L213.113 242.488L221.201 231.4H229.361L217.217 248.104L229.505 265H221.297L213.113 253.768L204.929 265H196.721Z" fill="#1E1E1E"/>
<defs>
<radialGradient id="paint0_radial_37_6392" cx="0" cy="0" r="1" gradientUnits="userSpaceOnUse" gradientTransform="translate(173.364 113.258) scale(20.4952 20.4952)">
<stop stop-color="white"/>
<stop offset="0.3054" stop-color="#EC1C24"/>
<stop offset="0.5557" stop-color="#C72127"/>
<stop offset="0.7705" stop-color="#BE1F24"/>
<stop offset="1" stop-color="#9C1619"/>
</radialGradient>
<radialGradient id="paint1_radial_37_6392" cx="0" cy="0" r="1" gradientUnits="userSpaceOnUse" gradientTransform="translate(136.01 140.833) scale(34.4383 34.4383)">
<stop stop-color="white"/>
<stop offset="0.3054" stop-color="#EC1C24"/>
<stop offset="0.5557" stop-color="#C72127"/>
<stop offset="0.7705" stop-color="#BE1F24"/>
<stop offset="1" stop-color="#9C1619"/>
</radialGradient>
<radialGradient id="paint2_radial_37_6392" cx="0" cy="0" r="1" gradientUnits="userSpaceOnUse" gradientTransform="translate(88.9622 68.072) scale(55.734 55.734)">
<stop stop-color="white"/>
<stop offset="0.3054" stop-color="#EC1C24"/>
<stop offset="0.5557" stop-color="#C72127"/>
<stop offset="0.7705" stop-color="#BE1F24"/>
<stop offset="1" stop-color="#9C1619"/>
</radialGradient>
<linearGradient id="paint3_linear_37_6392" x1="141.798" y1="209.823" x2="147.835" y2="99.9422" gradientUnits="userSpaceOnUse">
<stop stop-color="white"/>
<stop offset="0.2759" stop-color="#EC1C24"/>
<stop offset="0.5557" stop-color="#C72127"/>
<stop offset="0.7705" stop-color="#BE1F24"/>
<stop offset="1" stop-color="#9C1619"/>
</linearGradient>
<radialGradient id="paint4_radial_37_6392" cx="0" cy="0" r="1" gradientUnits="userSpaceOnUse" gradientTransform="translate(108.697 106.062) scale(44.0145 44.0144)">
<stop stop-color="white"/>
<stop offset="0.3054" stop-color="#EC1C24"/>
<stop offset="0.5557" stop-color="#C72127"/>
<stop offset="0.7705" stop-color="#BE1F24"/>
<stop offset="1" stop-color="#9C1619"/>
</radialGradient>
<linearGradient id="paint5_linear_37_6392" x1="70.5653" y1="203.295" x2="93.5078" y2="63.2287" gradientUnits="userSpaceOnUse">
<stop stop-color="white"/>
<stop offset="0.2759" stop-color="#EC1C24"/>
<stop offset="0.5557" stop-color="#C72127"/>
<stop offset="0.7705" stop-color="#BE1F24"/>
<stop offset="1" stop-color="#9C1619"/>
</linearGradient>
</defs>
</svg>
